#!OML:ASF H:\GeneralSubjects\Female5\Project 1\Capture day 1\Session 1\Female5.ASF
:FULLY-SPECIFIED
:DEGREES
48
root 31.4583 15.1644 -0.698448 101.561 -79.5802 -87.7081
lowerback 6.07868 2.20871 11.6997
upperback -9.01543 4.56948 4.79681
thorax -12.9236 1.16317 -1.91889
lowerneck -19.5524 -4.75787 -7.30888
upperneck 35.1631 -6.01428 1.46033
head 16.1082 -3.62277 0.635242
rclavicle 1.51076e-014 -1.35174e-014
rhumerus -48.3943 24.1866 -85.4928
rradius 37.2537
rwrist -18.6019
rhand -26.4787 -24.8874
rfingers 7.12502
rthumb 0.0833655 -54.8671
lclavicle 1.51076e-014 -1.35174e-014
lhumerus -53.0279 16.4764 68.3114
lradius 29.6199
lwrist -12.5991
lhand -24.8282 36.2558
lfingers 7.12502
lthumb 1.67747 66.229
rfemur 9.4603 15.7882 48.3331
rtibia -5.07792
rfoot -32.002 -19.1876
rtoes -0.637031
lfemur -50.2125 -14.0171 -7.82958
ltibia 19.9515
lfoot -15.2831 19.2894
ltoes -69.7866
49
root 31.2209 15.1509 -0.67569 103.604 -79.449 -89.6884
lowerback 6.07929 2.26434 11.8774
upperback -9.12995 4.66535 4.72185
thorax -13.0343 1.17468 -2.10943
lowerneck -19.6227 -4.47032 -7.10906
upperneck 34.9908 -5.5071 1.18232
head 15.9896 -3.41936 0.584461
rclavicle -3.42904e-015 1.11319e-014
rhumerus -48.4045 23.7985 -85.423
rradius 37.4782
rwrist -18.6325
rhand -25.5885 -24.0173
rfingers 7.12502
rthumb 0.943174 -53.9949
lclavicle -3.42904e-015 1.11319e-014
lhumerus -53.6734 16.6444 67.8294
lradius 29.7663
lwrist -12.3444
lhand -24.8444 36.2467
lfingers 7.12502
lthumb 1.66184 66.22
rfemur 10.3212 16.3159 48.6051
rtibia -4.85263
rfoot -31.9604 -19.0305
rtoes 0.581972
lfemur -49.8881 -13.8676 -8.4645
ltibia 21.2768
lfoot -14.3852 17.4707
ltoes -69.4271
50
root 30.969 15.1377 -0.649513 106.147 -79.5097 -92.2016
lowerback 6.02374 2.33531 11.9149
upperback -9.21155 4.74863 4.56386
thorax -13.069 1.19637 -2.31354
lowerneck -19.8293 -4.29482 -6.86193
upperneck 34.9806 -5.24485 1.02938
head 16.0023 -3.29534 0.524514
rclavicle -1.67973e-014 -6.44062e-014
rhumerus -48.8936 23.9394 -86.0878
rradius 37.6187
rwrist -17.5914
rhand -27.0444 -25.0275
rfingers 7.12502
rthumb -0.463016 -55.0067
lclavicle -1.67973e-014 -6.44062e-014
lhumerus -54.2278 16.7979 67.2573
lradius 29.8791
lwrist -11.785
lhand -24.4796 35.0125
lfingers 7.12502
lthumb 2.01418 64.9827
rfemur 11.2863 16.695 48.6493
rtibia -4.61449
rfoot -31.7483 -18.9924
rtoes -0.323233
lfemur -49.3616 -14.2881 -8.74522
ltibia 21.9027
lfoot -14.2553 16.0596
ltoes -67.4884
51
root 30.709 15.1296 -0.622889 109.27 -79.7164 -95.2599
lowerback 5.93044 2.43884 11.6681
upperback -9.3161 4.8376 4.38489
thorax -13.1172 1.24711 -2.38684
lowerneck -20.026 -4.08631 -6.60638
upperneck 34.9325 -4.90632 0.808427
head 15.9893 -3.14748 0.450042
rclavicle 1.09332e-015 -4.21423e-014
rhumerus -49.2052 23.8058 -86.3684
rradius 37.7893
rwrist -17.7934
rhand -26.7557 -25.1919
rfingers 7.12502
rthumb -0.18413 -55.1716
lclavicle 1.09332e-015 -4.21423e-014
lhumerus -54.7255 16.9288 66.7057
lradius 29.9809
lwrist -11.1722
lhand -24.3972 36.4172
lfingers 7.12502
lthumb 2.09379 66.3867
rfemur 12.1934 16.8545 48.4432
rtibia -4.24187
rfoot -31.5593 -19.1339
rtoes -3.63842
lfemur -48.9277 -14.5667 -9.1409
ltibia 22.6029
lfoot -14.7481 15.6229
ltoes -65.4159
52
root 30.4438 15.1307 -0.598941 112.501 -79.966 -98.3704
lowerback 5.77344 2.52792 11.2984
upperback -9.42109 4.8816 4.19533
thorax -13.1366 1.29043 -2.39564
lowerneck -20.3836 -3.85014 -6.36255
upperneck 34.8917 -4.50649 0.597683
head 16.0183 -2.971 0.391111
rclavicle -2.33075e-014 -2.70347e-014
rhumerus -49.1974 23.2664 -86.1656
rradius 37.8271
rwrist -18.3787
rhand -25.6658 -24.1358
rfingers 7.12502
rthumb 0.868526 -54.1138
lclavicle -2.33075e-014 -2.70347e-014
lhumerus -55.1033 16.7898 66.6081
lradius 30.2736
lwrist -10.496
lhand -24.4446 43.0313
lfingers 7.12502
lthumb 2.04796 73.0012
rfemur 12.9126 16.906 48.0875
rtibia -3.66338
rfoot -31.3214 -19.0966
rtoes -4.51446
lfemur -48.8151 -14.4253 -9.78451
ltibia 24.1689
lfoot -15.7107 15.4963
ltoes -64.1411
53
root 30.1692 15.1434 -0.578344 115.557 -80.212 -101.187
lowerback 5.46149 2.62852 10.7935
upperback -9.61895 4.90789 4.04576
thorax -13.1836 1.33503 -2.27496
lowerneck -20.6285 -3.71117 -6.48442
upperneck 34.8851 -4.22553 0.633447
head 16.0659 -2.86114 0.479051
rclavicle -6.41081e-015 -4.13472e-014
rhumerus -49.3751 22.6935 -85.9601
rradius 37.7085
rwrist -18.5654
rhand -25.6747 -23.7741
rfingers 7.12502
rthumb 0.859891 -53.7521
lclavicle -6.41081e-015 -4.13472e-014
lhumerus -55.5743 16.7872 66.2678
lradius 30.4853
lwrist -9.84785
lhand -24.6178 36.2985
lfingers 7.12502
lthumb 1.88073 66.2699
rfemur 13.3156 16.7313 47.5751
rtibia -2.86101
rfoot -30.4224 -20.4923
rtoes -10.995
lfemur -48.9189 -13.9299 -10.6797
ltibia 26.0942
lfoot -15.6808 15.5698
ltoes -64.0416
54
root 29.885 15.1695 -0.558887 118.034 -80.4705 -103.423
lowerback 5.07921 2.70252 10.1903
upperback -9.85849 4.88276 3.93404
thorax -13.2521 1.36477 -2.04702
lowerneck -20.512 -3.41585 -6.03969
upperneck 34.552 -3.73493 0.127876
head 15.8247 -2.66348 0.290987
rclavicle -1.74434e-014 1.98785e-014
rhumerus -49.7667 22.2454 -85.8809
rradius 37.5726
rwrist -18.3432
rhand -25.8819 -24.4136
rfingers 7.12502
rthumb 0.659842 -54.3923
lclavicle -1.74434e-014 1.98785e-014
lhumerus -56.0362 17.3726 65.1626
lradius 30.2243
lwrist -10.1413
lhand -23.4151 32.9174
lfingers 7.12502
lthumb 3.04222 62.8755
rfemur 13.5934 16.4265 46.9347
rtibia -1.79969
rfoot -30.5481 -19.1914
rtoes -12.0496
lfemur -48.8472 -13.2331 -11.8592
ltibia 27.773
lfoot -13.8511 16.0731
ltoes -65.1687
55
root 29.5923 15.2018 -0.539402 119.916 -80.7391 -105.232
lowerback 4.68484 2.70504 9.67562
upperback -9.98011 4.76455 3.79429
thorax -13.1738 1.35317 -1.88507
lowerneck -20.5906 -3.20954 -5.72469
upperneck 34.2577 -3.35864 -0.261116
head 15.6679 -2.51066 0.149207
rclavicle 9.0944e-015 -3.18055e-014
rhumerus -49.9828 21.7387 -85.7615
rradius 37.367
rwrist -17.9645
rhand -25.3909 -24.566
rfingers 7.12502
rthumb 1.13405 -54.5427
lclavicle 9.0944e-015 -3.18055e-014
lhumerus -56.1046 17.6843 64.4495
lradius 29.8407
lwrist -10.6876
lhand -22.5085 31.8764
lfingers 7.12502
lthumb 3.91778 61.8202
rfemur 13.7728 15.2085 45.9895
rtibia -0.574847
rfoot -29.9631 -17.6631
rtoes -13.0076
lfemur -47.748 -12.5343 -13.1689
ltibia 28.0085
lfoot -11.6669 16.1304
ltoes -66.1247
56
root 29.2909 15.2362 -0.521216 121.493 -80.8541 -106.9
lowerback 4.16442 2.73167 9.33185
upperback -9.94332 4.67793 3.70295
thorax -12.8189 1.36045 -1.7623
lowerneck -20.7593 -3.07949 -5.59292
upperneck 33.9706 -3.05998 -0.543906
head 15.5504 -2.39694 0.0679216
rclavicle 1.80894e-014 3.02153e-014
rhumerus -50.0092 21.0835 -85.4305
rradius 37.118
rwrist -17.6854
rhand -24.9357 -24.3598
rfingers 7.12502
rthumb 1.57365 -54.3337
lclavicle 1.80894e-014 3.02153e-014
lhumerus -55.7485 17.1842 64.8788
lradius 29.7228
lwrist -10.7484
lhand -23.3199 34.4869
lfingers 7.12502
lthumb 3.13414 64.4436
rfemur 13.5565 11.9342 44.5576
rtibia 0.758674
rfoot -24.3942 -19.6145
rtoes -29.2918
lfemur -46.2401 -12.035 -14.2105
ltibia 27.9738
lfoot -11.4605 15.4603
ltoes -65.9138
57
root 28.9854 15.2767 -0.504096 122.89 -80.9299 -108.561
lowerback 3.77287 2.73664 9.0361
upperback -9.84397 4.58881 3.61581
thorax -12.4705 1.36353 -1.66763
lowerneck -20.823 -2.96682 -5.32436
upperneck 33.588 -2.75832 -1.07628
head 15.3593 -2.29957 -0.137429
rclavicle 4.72114e-015 -2.54444e-014
rhumerus -50.0428 20.4431 -85.0946
rradius 36.9804
rwrist -17.5307
rhand -24.7152 -24.8641
rfingers 7.12502
rthumb 1.78659 -54.8364
lclavicle 4.72114e-015 -2.54444e-014
lhumerus -55.3639 16.6081 65.3991
lradius 29.7832
lwrist -10.9524
lhand -24.1402 35.8686
lfingers 7.12502
lthumb 2.34192 65.8355
rfemur 13.664 10.6323 43.5547
rtibia 2.80457
rfoot -23.6031 -16.5092
rtoes -21.5092
lfemur -44.232 -11.6534 -15.2042
ltibia 27.4724
lfoot -11.7971 14.6582
ltoes -65.6543
58
root 28.6826 15.3253 -0.485038 124.283 -81.2122 -110.358
lowerback 4.03452 2.63565 8.54639
upperback -10.023 4.43793 3.4449
thorax -12.8696 1.30894 -1.57996
lowerneck -20.7847 -2.71722 -4.94443
upperneck 33.625 -2.36343 -1.54718
head 15.3437 -2.15891 -0.326054
rclavicle -6.70898e-015 3.73715e-014
rhumerus -50.5234 19.9345 -85.109
rradius 36.7535
rwrist -17.4386
rhand -24.555 -25.3224
rfingers 7.12502
rthumb 1.94133 -55.2933
lclavicle -6.70898e-015 3.73715e-014
lhumerus -55.4059 16.2366 65.2063
lradius 29.7048
lwrist -11.2503
lhand -23.9116 36.4385
lfingers 7.12502
lthumb 2.56272 66.4028
rfemur 13.4676 8.38579 41.9153
rtibia 5.25243
rfoot -19.6423 -14.2874
rtoes -18.7482
lfemur -41.883 -11.5284 -16.4012
ltibia 26.6518
lfoot -12.0102 13.8878
ltoes -65.6747
